<?xml version="1.0" encoding="UTF-8"?>
<!DOCTYPE svg PUBLIC "-//W3C//DTD SVG 1.1//EN" "http://www.w3.org/Graphics/SVG/1.1/DTD/svg11.dtd">
<!-- Creator: CorelDRAW -->
<svg xmlns="http://www.w3.org/2000/svg" xml:space="preserve" width="5.20087in" height="1.28487in" style="shape-rendering:geometricPrecision; text-rendering:geometricPrecision; image-rendering:optimizeQuality; fill-rule:evenodd; clip-rule:evenodd"
viewBox="0 0 5.20087 1.28487"
 xmlns:xlink="http://www.w3.org/1999/xlink">
 <defs>
  <style type="text/css">
   <![CDATA[
    .fil4 {fill:#7D7D7E}
    .fil1 {fill:#ED593F}
    .fil2 {fill:#496272;fill-rule:nonzero}
    .fil3 {fill:#7D7D7E;fill-rule:nonzero}
    .fil0 {fill:#ED593F;fill-rule:nonzero}
   ]]>
  </style>
 </defs>
 <g id="Layer_x0020_1">
  <metadata id="CorelCorpID_0Corel-Layer"/>
  <path class="fil0" d="M2.01081 0.558008c0,0.00650787 -0.00115748,0.0122913 -0.00332677,0.0175 -0.00231496,0.00505906 -0.00535039,0.00925591 -0.00911024,0.0125787 -0.00390551,0.00347244 -0.00838976,0.00593307 -0.0135945,0.00752362 -0.00520866,0.00144488 -0.0105591,0.00231102 -0.0159094,0.00231102l-0.047437 0c-0.00983071,0 -0.0185079,-0.00101181 -0.0255984,-0.00303543 -0.00722835,-0.00188189 -0.0138819,-0.00549606 -0.0199567,-0.0107008 -0.00607087,-0.00520866 -0.0120039,-0.0122953 -0.0176417,-0.0212598 -0.00564173,-0.00882283 -0.0120039,-0.0203937 -0.0189449,-0.034563l-0.136524 -0.256272c-0.00780709,-0.0153268 -0.0159055,-0.0316693 -0.0241496,-0.049311 -0.00809843,-0.0176457 -0.0154764,-0.0348543 -0.0219843,-0.0514882l-0.000866142 0c0.00115748,0.020248 0.00202362,0.0404961 0.00260236,0.0607402 0.000433071,0.020248 0.000724409,0.0410748 0.000724409,0.0624764l0 0.286929c0,0.00274803 -0.000724409,0.00535039 -0.00231496,0.00751969 -0.00144488,0.00231496 -0.00419291,0.00419291 -0.00795276,0.00578346 -0.00390551,0.00159055 -0.0089685,0.00274803 -0.0154764,0.00361811 -0.00650787,0.000866142 -0.0148937,0.00129921 -0.0250197,0.00129921 -0.00983465,0 -0.0180787,-0.000433071 -0.0245827,-0.00129921 -0.00650787,-0.000870079 -0.0115709,-0.00202756 -0.0153307,-0.00361811 -0.00361417,-0.00159055 -0.0060748,-0.0034685 -0.00751969,-0.00578346 -0.00144882,-0.00216929 -0.00216929,-0.00477165 -0.00216929,-0.00751969l0 -0.492866c0,-0.0131614 0.00390157,-0.0231417 0.0117126,-0.0297913 0.00766535,-0.00665354 0.0172087,-0.00998031 0.0284921,-0.00998031l0.0598701 0c0.0107047,0 0.0196693,0.000866142 0.0270433,0.00274803 0.00737795,0.00188189 0.0138858,0.00491732 0.0196693,0.00911024 0.0057874,0.00419291 0.0112835,0.010126 0.0163425,0.0176457 0.00506299,0.00737402 0.0102677,0.0166299 0.0156181,0.027622l0.106878 0.200445c0.00621654,0.0121457 0.0122913,0.0241496 0.0183661,0.0358622 0.00607087,0.0117165 0.0120039,0.0234291 0.0176417,0.0351457 0.00564173,0.0117126 0.0111378,0.0232835 0.0164882,0.034563 0.00535039,0.0112795 0.0105551,0.0225591 0.0156181,0.0338425l0.000433071 0c-0.000866142,-0.019815 -0.00144488,-0.0403504 -0.00188189,-0.0618976 -0.000433071,-0.0214055 -0.000574803,-0.0419409 -0.000574803,-0.0613189l0 -0.25728c0,-0.00274803 0.000866142,-0.00535039 0.00245669,-0.00766535 0.00173622,-0.00216929 0.00462992,-0.00419291 0.0085315,-0.00592913 0.00390551,-0.00159055 0.00911417,-0.0028937 0.015622,-0.00347244 0.00650787,-0.000724409 0.0148937,-0.00115748 0.0250197,-0.00115748 0.00968898,0 0.0176417,0.000433071 0.0241496,0.00115748 0.00650787,0.00057874 0.0115709,0.00188189 0.0150394,0.00347244 0.00361811,0.00173622 0.0060748,0.00375984 0.00737795,0.00592913 0.00144488,0.00231496 0.00216929,0.00491732 0.00216929,0.00766535l0 0.49272z"/>
  <path class="fil0" d="M2.92212 0.089126c0,0.00824016 -0.000433071,0.0151811 -0.00115748,0.0209685 -0.000720472,0.00578346 -0.00173228,0.0105551 -0.0031811,0.0140276 -0.00144488,0.0034685 -0.0031811,0.00621654 -0.00520472,0.00780709 -0.00216929,0.00173622 -0.00448031,0.0026063 -0.00708661,0.0026063l-0.137236 0 0 0.441933c0,0.00274803 -0.000870079,0.00535039 -0.00274803,0.00751969 -0.00187795,0.00231496 -0.00491732,0.00419685 -0.00911024,0.00549606 -0.00419291,0.00144882 -0.00998031,0.00260236 -0.0172087,0.00347244 -0.00708661,0.000866142 -0.0160512,0.00129921 -0.0268976,0.00129921 -0.0107008,0 -0.0196693,-0.000433071 -0.0268976,-0.00129921 -0.00708661,-0.000870079 -0.012874,-0.00202362 -0.0170669,-0.00347244 -0.00433858,-0.00129921 -0.00737402,-0.0031811 -0.00911024,-0.00549606 -0.00187795,-0.00216929 -0.00274803,-0.00477165 -0.00274803,-0.00751969l0 -0.441933 -0.137382 0c-0.00274803,0 -0.00520472,-0.000870079 -0.00708661,-0.0026063 -0.00202362,-0.00159055 -0.00375591,-0.00433858 -0.00520472,-0.00780709 -0.00129921,-0.00347244 -0.00245669,-0.00824409 -0.0031811,-0.0140276 -0.00057874,-0.0057874 -0.00101181,-0.0127283 -0.00101181,-0.0209685 0,-0.00838976 0.000433071,-0.0156181 0.00101181,-0.0215472 0.000724409,-0.00592913 0.00188189,-0.0107047 0.0031811,-0.0141732 0.00144882,-0.00361417 0.0031811,-0.0060748 0.00520472,-0.00766535 0.00188189,-0.00159055 0.00433858,-0.00231496 0.00708661,-0.00231496l0.386406 0c0.0026063,0 0.00491732,0.000724409 0.00708661,0.00231496 0.00202362,0.00159055 0.00375984,0.00405118 0.00520472,0.00766535 0.00144882,0.0034685 0.00246063,0.00824409 0.0031811,0.0141732 0.000724409,0.00592913 0.00115748,0.0131575 0.00115748,0.0215472z"/>
  <path class="fil0" d="M3.59069 0.565516c-0.00159055,0.00679528 -0.00405118,0.0121496 -0.00694094,0.0161969 -0.00303543,0.00419291 -0.00737402,0.00723228 -0.0133031,0.00940157 -0.00592913,0.00216535 -0.0135945,0.0034685 -0.0229961,0.00419291 -0.00925197,0.000720472 -0.0211102,0.00115748 -0.0355748,0.00115748 -0.0160512,0 -0.0289213,-0.000437008 -0.0387559,-0.00115748 -0.00968898,-0.000724409 -0.0173504,-0.00202756 -0.0229921,-0.00419291 -0.00564173,-0.00216929 -0.00983465,-0.00520866 -0.0122913,-0.00940157 -0.0026063,-0.00404724 -0.00462992,-0.00940157 -0.00592913,-0.0161969l-0.0877795 -0.347504 -0.000870079 0 -0.0830079 0.347504c-0.00144488,0.00650787 -0.00332283,0.0117126 -0.00592913,0.0159055 -0.00245669,0.00405118 -0.00650787,0.00723228 -0.012,0.00940157 -0.00549606,0.00231496 -0.0130157,0.00375984 -0.022563,0.00448425 -0.00939764,0.000720472 -0.0218346,0.00115748 -0.0374528,0.00115748 -0.0163425,0 -0.0295,-0.000437008 -0.039189,-0.00115748 -0.00968898,-0.000724409 -0.0173543,-0.00202756 -0.0231378,-0.00419291 -0.00564173,-0.00216929 -0.00968898,-0.00520866 -0.0122953,-0.00940157 -0.00245669,-0.00404724 -0.00462598,-0.00940157 -0.00621654,-0.0161969l-0.124657 -0.478378c-0.00245669,-0.010122 -0.00390157,-0.0180787 -0.00419291,-0.0238622 -0.000287402,-0.00578346 0.00130315,-0.0102677 0.00491732,-0.0134488 0.0034685,-0.00303543 0.00925591,-0.00491732 0.0173543,-0.00564173 0.00795276,-0.000720472 0.0192323,-0.00115354 0.0336929,-0.00115354 0.0131614,0 0.0237165,0.000287402 0.0315276,0.000720472 0.00780709,0.000433071 0.0135906,0.00144882 0.0174961,0.0028937 0.00405118,0.00159055 0.00665354,0.00390551 0.00809843,0.00679528 0.00144882,0.00303937 0.00260236,0.00708661 0.00347244,0.0125827l0.0961654 0.419811 0.000437008 0 0.0999252 -0.416917c0.00115748,-0.00535433 0.00260236,-0.00968898 0.00448425,-0.0131614 0.00173622,-0.00332677 0.00491732,-0.00592913 0.00925591,-0.00780709 0.00433858,-0.00188189 0.0104094,-0.00303937 0.0180748,-0.00376378 0.00751969,-0.000720472 0.0177874,-0.00115354 0.0305118,-0.00115354 0.0134488,0 0.0242953,0.000287402 0.0323937,0.000866142 0.00795276,0.00057874 0.0141732,0.00173622 0.0186575,0.00361417 0.00433858,0.00188189 0.00751969,0.00448425 0.00954331,0.00781102 0.00188189,0.0034685 0.0034685,0.00795276 0.00462992,0.0135945l0.103398 0.416917 0.000720472 0 0.096311 -0.418654c0.000724409,-0.00448425 0.00188189,-0.00838976 0.00332677,-0.0115709 0.00144882,-0.00332283 0.00405118,-0.00578346 0.00809843,-0.00766142 0.00390551,-0.00188189 0.00954331,-0.00303937 0.0169213,-0.00376378 0.00737402,-0.000720472 0.0176417,-0.00115354 0.0309449,-0.00115354 0.012437,0 0.022126,0.000433071 0.0289252,0.00115354 0.00694094,0.000724409 0.012,0.0026063 0.0150394,0.00564173 0.0031811,0.0031811 0.00448031,0.00766535 0.00404724,0.0137362 -0.000433071,0.0060748 -0.00187795,0.0144646 -0.00448031,0.024878l-0.125815 0.477075z"/>
  <path class="fil0" d="M4.74176 0.577996c0,0.0031811 -0.00057874,0.00578346 -0.00173228,0.00795276 -0.00115748,0.00202362 -0.00375984,0.00375984 -0.00810236,0.00520472 -0.00419291,0.00144882 -0.0104094,0.00246063 -0.0186535,0.00303937 -0.00809843,0.00057874 -0.0192323,0.000866142 -0.0334055,0.000866142 -0.0118583,0 -0.0214016,-0.000287402 -0.0283425,-0.000866142 -0.00708661,-0.00057874 -0.0127244,-0.00173622 -0.0167756,-0.0031811 -0.00405118,-0.00159055 -0.00694094,-0.00361811 -0.00867717,-0.00592913 -0.00173622,-0.00246063 -0.0031811,-0.00535039 -0.00433858,-0.00867717l-0.0490236 -0.122488c-0.00592913,-0.0138819 -0.0117126,-0.0261772 -0.0173543,-0.036874 -0.00578346,-0.0107047 -0.0120039,-0.0196693 -0.0189449,-0.0269016 -0.00694094,-0.00722835 -0.0148937,-0.0125787 -0.0238583,-0.0163386 -0.00911024,-0.00361811 -0.0195236,-0.00549606 -0.0313819,-0.00549606l-0.0347087 0 0 0.208965c0,0.00274803 -0.00101181,0.00535039 -0.00274803,0.00751969 -0.00187795,0.00231496 -0.00491732,0.00419291 -0.00911024,0.00549606 -0.00433858,0.00144488 -0.00997638,0.00260236 -0.017063,0.00347244 -0.00694094,0.000866142 -0.0160512,0.00129921 -0.0270433,0.00129921 -0.0107008,0 -0.0196654,-0.000433071 -0.0268976,-0.00129921 -0.00723228,-0.000870079 -0.0130157,-0.00202756 -0.0172087,-0.00347244 -0.00419291,-0.00130315 -0.00723228,-0.0031811 -0.00882283,-0.00549606 -0.00173228,-0.00216929 -0.00260236,-0.00477165 -0.00260236,-0.00751969l0 -0.497902c0,-0.012437 0.0031811,-0.0214016 0.00954331,-0.0268976 0.00636614,-0.00549606 0.0141732,-0.00824409 0.0235748,-0.00824409l0.141862 0c0.0144646,0 0.0263228,0.000291339 0.0355748,0.000870079 0.00940157,0.00057874 0.0177913,0.00129921 0.0254528,0.00202362 0.0219803,0.0031811 0.0417953,0.0085315 0.0595827,0.0161969 0.0176417,0.00766535 0.0325354,0.0174961 0.0448268,0.0297913 0.0122953,0.0122913 0.0216929,0.0268937 0.0282008,0.0436693 0.00650787,0.0167756 0.00968898,0.0361535 0.00968898,0.0578465 0,0.0183661 -0.00231496,0.0351417 -0.00694094,0.0501811 -0.00462598,0.015185 -0.0115709,0.0286339 -0.0205354,0.0404921 -0.00911024,0.0118583 -0.0202441,0.022126 -0.0335512,0.0309449 -0.0131575,0.0086811 -0.0283425,0.0157638 -0.0452638,0.0211142 0.00824409,0.00405118 0.0159094,0.00882283 0.0231378,0.0144606 0.00708661,0.00564173 0.0138858,0.012437 0.020248,0.0205394 0.0063622,0.00809449 0.012437,0.0172047 0.0180748,0.0274724 0.00564173,0.0104134 0.0111378,0.0219843 0.0164882,0.0349961l0.0461299 0.108028c0.00433858,0.0107008 0.00708661,0.0186575 0.0085315,0.0235709 0.00144882,0.00491732 0.00216929,0.00882283 0.00216929,0.0115709zm-0.143744 -0.371945c0,-0.0180748 -0.00404724,-0.0332598 -0.0122913,-0.0456969 -0.00809843,-0.012437 -0.0215472,-0.0212598 -0.0402047,-0.0263189 -0.0056378,-0.00144882 -0.012,-0.0026063 -0.0192323,-0.00332677 -0.00723228,-0.000870079 -0.0172087,-0.00130315 -0.0299331,-0.00130315l-0.0498937 0 0 0.155461 0.056689 0c0.0159055,0 0.0296457,-0.00188189 0.0415039,-0.0057874 0.0118583,-0.00375591 0.0218346,-0.00911024 0.0296457,-0.0160512 0.00795276,-0.00694094 0.0138819,-0.015185 0.0177874,-0.0247283 0.00405118,-0.00968898 0.00592913,-0.0203898 0.00592913,-0.032248z"/>
  <path class="fil0" d="M4.27674 0.309039c0,0.0454094 -0.0056378,0.0860472 -0.0169173,0.121909 -0.0112795,0.0358661 -0.0280551,0.066378 -0.0504724,0.0913976 -0.0222677,0.0248701 -0.0498898,0.0439606 -0.0827165,0.057122 -0.0329724,0.0131575 -0.0710039,0.0196654 -0.114244,0.0196654 -0.0426614,0 -0.0798268,-0.00549606 -0.111642,-0.0166299 -0.031815,-0.0111339 -0.0582795,-0.0282008 -0.0793937,-0.0510472 -0.0212559,-0.0229921 -0.0371614,-0.052063 -0.0477205,-0.0873465 -0.0105551,-0.0352874 -0.0159055,-0.0770787 -0.0159055,-0.125378 0,-0.0443976 0.0056378,-0.084311 0.017063,-0.11974 0.0112795,-0.0354331 0.0280551,-0.0655118 0.0503228,-0.0903819 0.0222717,-0.024878 0.0498937,-0.0439646 0.0828661,-0.0572677 0.0328268,-0.0133071 0.0711457,-0.019815 0.114531,-0.019815 0.0416496,0 0.0782362,0.00549606 0.110051,0.0164882 0.0316693,0.0109921 0.0582795,0.0279094 0.0795354,0.0507598 0.0214055,0.0229921 0.0374567,0.0517717 0.0483031,0.0867677 0.0109882,0.0348504 0.0163386,0.0759213 0.0163386,0.123496zm-0.116846 0.00592913c0,-0.0289213 -0.00231102,-0.0550945 -0.00679528,-0.0786654 -0.00448425,-0.0235748 -0.0122913,-0.0438189 -0.0231378,-0.0605945 -0.0108465,-0.0167756 -0.0253071,-0.0297913 -0.0433858,-0.0389016 -0.0180748,-0.00925591 -0.0406339,-0.0138819 -0.0678228,-0.0138819 -0.0273307,0 -0.0503228,0.00520472 -0.068689,0.0154724 -0.0182244,0.0104134 -0.0331181,0.0241496 -0.0443976,0.0413583 -0.0112795,0.0172087 -0.0192323,0.037311 -0.0240039,0.0603031 -0.00462992,0.0231378 -0.00694488,0.0474331 -0.00694488,0.0731772 0,0.0299331 0.00231496,0.0568307 0.00679921,0.0806929 0.00448425,0.0238622 0.0121457,0.044252 0.0228465,0.0611693 0.0107008,0.0169213 0.0251614,0.029937 0.0432402,0.0387598 0.0180787,0.00896457 0.0407795,0.0134449 0.0682598,0.0134449 0.0273307,0 0.0501772,-0.00520472 0.0685433,-0.0153268 0.0183661,-0.010122 0.0332638,-0.0240039 0.0445433,-0.0415039 0.0112795,-0.0174961 0.0192323,-0.0378898 0.0238583,-0.0611732 0.00477559,-0.0232795 0.00708661,-0.0481535 0.00708661,-0.0743307z"/>
  <path class="fil0" d="M5.20087 0.578114c0,0.00303937 -0.000866142,0.00578346 -0.00231496,0.00824409 -0.00159055,0.00231496 -0.00462598,0.00433858 -0.00896457,0.00592913 -0.00433858,0.00159055 -0.0104134,0.00274803 -0.0180787,0.00361417 -0.00751575,0.000870079 -0.0172087,0.00130315 -0.0287756,0.00130315 -0.0183661,0 -0.0315276,-0.000724409 -0.039626,-0.00216929 -0.00795276,-0.00144488 -0.0137362,-0.00347244 -0.0173504,-0.0063622 -0.00347244,-0.0028937 -0.00622047,-0.00622047 -0.00824409,-0.010122l-0.165583 -0.260161 0 0.260161c0,0.00303543 -0.000866142,0.00578346 -0.00260236,0.00795276 -0.00173622,0.00231102 -0.00462992,0.00419291 -0.00896457,0.00578346 -0.00419685,0.00159055 -0.00983465,0.00274803 -0.0169213,0.00361417 -0.00708661,0.000870079 -0.0160512,0.00130315 -0.0270433,0.00130315 -0.0107008,0 -0.0196654,-0.000433071 -0.0268976,-0.00130315 -0.00723228,-0.000866142 -0.0130157,-0.00202362 -0.0172087,-0.00361417 -0.00419291,-0.00159055 -0.00723228,-0.00347244 -0.00911024,-0.00578346 -0.00188189,-0.00216929 -0.00274803,-0.00491732 -0.00274803,-0.00795276l0 -0.516559c0,-0.00303543 0.000866142,-0.00578346 0.00274803,-0.00795276 0.00187795,-0.00231496 0.00491732,-0.00419291 0.00911024,-0.00549606 0.00419291,-0.00144488 0.00997638,-0.00260236 0.0172087,-0.00347244 0.00723228,-0.000866142 0.0161969,-0.00129921 0.0268976,-0.00129921 0.0109921,0 0.0199567,0.000433071 0.0270433,0.00129921 0.00708661,0.000870079 0.0127244,0.00202756 0.0169213,0.00347244 0.00433465,0.00130315 0.00722835,0.0031811 0.00896457,0.00549606 0.00173622,0.00216929 0.00260236,0.00491732 0.00260236,0.00795276l0 0.233551 0.16052 -0.233118c0.00202756,-0.00361417 0.00433858,-0.00664961 0.00723228,-0.00911024 0.00274803,-0.00231102 0.00650787,-0.00419291 0.0109921,-0.0056378 0.00448031,-0.00144882 0.0102638,-0.00246063 0.0173504,-0.00303937 0.00708661,-0.00057874 0.0160512,-0.000866142 0.027189,-0.000866142 0.0112795,0 0.0205354,0.000433071 0.0279094,0.00129921 0.00737402,0.000870079 0.0131614,0.00202756 0.0175,0.00361811 0.00448031,0.00159055 0.00751969,0.0034685 0.00911024,0.00578346 0.00173228,0.00216929 0.00260236,0.00477165 0.00260236,0.00751969 0,0.00491732 -0.00130315,0.00983465 -0.00375984,0.0148976 -0.0026063,0.00505906 -0.00737795,0.0131575 -0.0144646,0.0241496l-0.150394 0.196961 0.163992 0.247866c0.00621654,0.0115709 0.00997638,0.0192323 0.0111339,0.0231378 0.00129921,0.00375984 0.00202362,0.00679921 0.00202362,0.00911024z"/>
  <g id="_135758088">
   <path id="_135758472" class="fil1" d="M2.11244 0.0467835l0.286811 0c0.0238937,0 0.043437,0.0195472 0.043437,0.043437l0 0c0,0.0238898 -0.0195433,0.043437 -0.043437,0.043437l-0.286811 0c-0.0238937,0 -0.043437,-0.0195472 -0.043437,-0.043437l0 0c0,-0.0238898 0.0195433,-0.043437 0.043437,-0.043437zm0.0279094 0.025563c0.00987402,0 0.017878,0.00800394 0.017878,0.017874 0,0.00987402 -0.00800394,0.017874 -0.017878,0.017874 -0.00987008,0 -0.017874,-0.008 -0.017874,-0.017874 0,-0.00987008 0.00800394,-0.017874 0.017874,-0.017874z"/>
   <path id="_135758304" class="fil1" d="M2.11244 0.279811l0.286811 0c0.0238937,0 0.043437,0.0195472 0.043437,0.043437l0 0c0,0.0238898 -0.0195433,0.0434331 -0.043437,0.0434331l-0.286811 0c-0.0238937,0 -0.043437,-0.0195433 -0.043437,-0.0434331l0 0c0,-0.0238898 0.0195433,-0.043437 0.043437,-0.043437zm0.0279094 0.025563c0.00987402,0 0.017878,0.008 0.017878,0.017874 0,0.00987402 -0.00800394,0.017874 -0.017878,0.017874 -0.00987008,0 -0.017874,-0.008 -0.017874,-0.017874 0,-0.00987402 0.00800394,-0.017874 0.017874,-0.017874z"/>
   <path id="_135758064" class="fil1" d="M2.11244 0.505614l0.286811 0c0.0238937,0 0.043437,0.0195433 0.043437,0.0434331l0 0c0,0.0238898 -0.0195433,0.043437 -0.043437,0.043437l-0.286811 0c-0.0238937,0 -0.043437,-0.0195472 -0.043437,-0.043437l0 0c0,-0.0238898 0.0195433,-0.0434331 0.043437,-0.0434331zm0.0279094 0.0255591c0.00987402,0 0.017878,0.00800394 0.017878,0.017874 0,0.00987402 -0.00800394,0.017878 -0.017878,0.017878 -0.00987008,0 -0.017874,-0.00800394 -0.017874,-0.017878 0,-0.00987008 0.00800394,-0.017874 0.017874,-0.017874z"/>
  </g>
  <path class="fil2" d="M1.95688 1.10601c0,0.0197717 -0.0026378,0.0376417 -0.00805512,0.0536102 -0.0108268,0.0313307 -0.0292283,0.0559646 -0.0569803,0.0742638 -0.0279646,0.0189528 -0.0619724,0.0297441 -0.0952087,0.0345669 -0.0181654,0.00278346 -0.038378,0.00410236 -0.0607913,0.00410236l-0.1475 0c-0.00952362,0 -0.0174331,-0.00278346 -0.023878,-0.00835039 -0.00644488,-0.00556299 -0.00966535,-0.0146457 -0.00966535,-0.0272441l0 -0.184228c0.0165866,-0.0215472 0.0504685,-0.0402323 0.0774331,-0.0398661l-0.0301693 -0.0441457c0.0172047,0.00225591 0.0264803,0.0378228 0.0792677,0.0484961 0.062311,0.0136024 0.0958504,-0.0254173 0.104378,-0.00905512l0.0095315 0.0182953 0.0407559 -0.0224055 -0.0118307 -0.0162441c-0.00611024,-0.0083937 -0.0421457,-0.00340945 -0.0615787,-0.00456299 -0.0374606,-0.00250394 -0.0317402,-0.0218268 -0.0202441,-0.0521378 0.00275197,-0.00725197 -0.0151299,-0.00822441 -0.0346535,0.012311 -0.00046063,0.000484252 0.0408228,-0.0715472 0.0744055,0.018374 0.00280315,0.00750787 0.0273268,0.000783465 0.0336378,-0.0084252 0.00477165,-0.00696063 -3.54331e-005,-0.0206969 0.00281496,-0.0286811 0.00904331,-0.0253543 0.0196142,-0.0520276 0.00316929,-0.0765157 0.0239961,-0.00318504 0.0320748,0.00204724 0.0597441,0.0150984 -0.021378,-0.0560512 -0.0865866,-0.0652913 -0.123398,-0.0195l0.0197244 -0.0299488c-0.10948,-0.0616457 -0.179835,-0.0286496 -0.222988,0.034437l0 -0.0954016c0,-0.0125984 0.00322047,-0.0216811 0.00966535,-0.027248 0.00644488,-0.00556299 0.0143543,-0.00834646 0.023878,-0.00834646l0.139445 0c0.0484409,0 0.105512,0.00546457 0.146039,0.0345669 0.0162598,0.0115709 0.028563,0.0262205 0.0372047,0.0439449 0.00849606,0.0177244 0.0128898,0.0386693 0.0128898,0.0626929 0,0.0134764 -0.00175984,0.0260709 -0.00527559,0.037937 -0.0103661,0.0365157 -0.036685,0.0631102 -0.0720669,0.0761693 0.0474921,0.00879134 0.0846339,0.0366811 0.101803,0.0824646 0.0057126,0.0150866 0.00849606,0.0320787 0.00849606,0.0509764zm-0.189465 -0.311339c0.000409449,0.000755906 0.00647638,0.00429528 0.013685,0.00794882 0.00256299,0.00130315 0.00516142,0.00264961 0.00758268,0.00370079 0.00855118,-0.00345276 0.0186535,-0.00462205 0.0266496,-0.00516535 0.0168031,-0.00114961 0.0276654,0.00237008 0.0276654,0.00237008 -0.00580315,-0.0115984 -0.0241575,-0.0193071 -0.0427992,-0.0187677 -0.011626,0.000334646 -0.0242756,0.00481102 -0.0327835,0.00991339zm0.701622 0.273563c0,0.0590748 -0.0155118,0.11765 -0.0591772,0.159661 -0.0194803,0.0186024 -0.0435039,0.0326654 -0.0722126,0.0424803 -0.028563,0.00966535 -0.0615236,0.0145 -0.0985787,0.0145 -0.0583425,0 -0.120331,-0.011937 -0.164496,-0.0527323 -0.0190433,-0.0177244 -0.033689,-0.0398425 -0.0439449,-0.0663543 -0.0101063,-0.0263661 -0.0152323,-0.0574173 -0.0152323,-0.0928661l0 -0.337776c0,-0.00278346 0.000877953,-0.00542126 0.0026378,-0.00761811 0.00161024,-0.00234252 0.00468504,-0.00424803 0.00922835,-0.00556693 0.0043937,-0.00146457 0.010252,-0.0026378 0.0172835,-0.00351575 0.00717717,-0.000877953 0.0164055,-0.0013189 0.0275394,-0.0013189 0.0108386,0 0.0199213,0.000440945 0.0269488,0.0013189 0.00717717,0.000877953 0.0128898,0.00205118 0.0172874,0.00351575 0.00424803,0.0013189 0.00732283,0.00322441 0.00922441,0.00556693 0.00175984,0.00219685 0.00278346,0.00483465 0.00278346,0.00761811l0 0.327961c0,0.0219724 0.0026378,0.0410157 0.00805906,0.0572756 0.0101654,0.0302323 0.0297047,0.0526535 0.0599094,0.0638622 0.0142087,0.00527165 0.0300276,0.00805512 0.0474567,0.00805512 0.0755512,0 0.113665,-0.0502402 0.113665,-0.122748l0 -0.334406c0,-0.00278346 0.00088189,-0.00542126 0.0026378,-0.00761811 0.00161417,-0.00234252 0.00468898,-0.00424803 0.00893701,-0.00556693 0.0043937,-0.00146457 0.0101063,-0.0026378 0.0174291,-0.00351575 0.00732677,-0.000877953 0.0164055,-0.0013189 0.0272441,-0.0013189 0.0108425,0 0.0197756,0.000440945 0.0268071,0.0013189 0.0070315,0.000877953 0.0125984,0.00205118 0.0169921,0.00351575 0.00424803,0.0013189 0.00732283,0.00322441 0.00893307,0.00556693 0.00175984,0.00219685 0.0026378,0.00483465 0.0026378,0.00761811l0 0.333087zm0.368945 0.159661c0,0.0103661 -0.000232283,0.0376181 -0.00966929,0.0445276 -0.00205118,0.00175984 -0.00469291,0.0026378 -0.0074685,0.0026378l-0.254433 0c-0.00951575,0 -0.0174291,-0.00278346 -0.023874,-0.00834646 -0.00644488,-0.00556693 -0.00966929,-0.0146496 -0.00966929,-0.027248l0 -0.504319c0,-0.00722047 0.00570472,-0.0112283 0.0120118,-0.013185 0.00424803,-0.00146457 0.0101063,-0.0026378 0.0174331,-0.00351575 0.00732283,-0.000877953 0.0164055,-0.0013189 0.0272441,-0.0013189 0.0111299,0 0.0202126,0.000440945 0.0273898,0.0013189 0.00717717,0.000877953 0.0128898,0.00205118 0.0171378,0.00351575 0.0043937,0.0013189 0.00747244,0.00322441 0.00922835,0.00556693 0.00190551,0.00219685 0.00292913,0.00483858 0.00292913,0.00761811l0 0.446756 0.174602 0c0.00278346,0 0.00541732,0.000877953 0.0074685,0.00234252 0.00593701,0.00435039 0.00779528,0.0151732 0.00864173,0.0219724 0.000732283,0.00585433 0.00102756,0.0130354 0.00102756,0.0216772zm0.363488 0c0,0.0103661 -0.000232283,0.0376181 -0.00966535,0.0445276 -0.00205118,0.00175984 -0.00470079,0.0026378 -0.00747244,0.0026378l-0.254429 0c-0.00950787,0 -0.0174331,-0.00278346 -0.023878,-0.00834646 -0.00644488,-0.00556693 -0.00966535,-0.0146496 -0.00966535,-0.027248l0 -0.504319c0,-0.00722047 0.00570472,-0.0112283 0.0120118,-0.013185 0.00424409,-0.00146457 0.0101063,-0.0026378 0.0174291,-0.00351575 0.00732283,-0.000877953 0.0164055,-0.0013189 0.0272441,-0.0013189 0.0111339,0 0.0202165,0.000440945 0.0273937,0.0013189 0.00717717,0.000877953 0.0128898,0.00205118 0.0171378,0.00351575 0.0043937,0.0013189 0.0074685,0.00322441 0.00922441,0.00556693 0.00190551,0.00219685 0.00293307,0.00485039 0.00293307,0.00761811l0 0.446756 0.174598 0c0.00278346,0 0.00542126,0.000877953 0.00747244,0.00234252 0.00593307,0.00435039 0.00779921,0.0151772 0.00864173,0.0219724 0.000724409,0.00585039 0.00102362,0.0130354 0.00102362,0.0216772zm-1.36177 -0.117933c0,-0.0231654 -0.00702362,-0.0449488 -0.0251929,-0.0602008 -0.0227362,-0.0183465 -0.0538701,-0.0213858 -0.0820276,-0.0213858l-0.0669409 0 0 0.157902 0.0815866 0c0.0242362,0 0.0482087,-0.00374016 0.0675276,-0.0194803 0.0174606,-0.0142283 0.0250472,-0.0346969 0.0250472,-0.0568346z"/>
  <path class="fil2" d="M3.61763 1.10421c0,0.0291496 -0.00541732,0.0547835 -0.0162559,0.0769016 -0.0108425,0.0219724 -0.0256339,0.0404291 -0.0442362,0.0550748 -0.0186024,0.0147953 -0.0402835,0.0257795 -0.065185,0.033252 -0.0249016,0.0074685 -0.0515591,0.0111339 -0.0798307,0.0111339 -0.019185,0 -0.0370551,-0.0014685 -0.0534606,-0.00468898 -0.0164055,-0.0030748 -0.0309094,-0.00688583 -0.0435039,-0.0112795 -0.0125984,-0.00453937 -0.0231457,-0.00908268 -0.0316417,-0.0140591 -0.00834646,-0.00483465 -0.0145,-0.00908268 -0.0181614,-0.0128937 -0.00380709,-0.00366142 -0.00644488,-0.00908268 -0.00790945,-0.0159646 -0.00161024,-0.0070315 -0.00234252,-0.0171378 -0.00234252,-0.0303228 0,-0.00893307 0.000291339,-0.0162559 0.000732283,-0.0222638 0.000582677,-0.00600394 0.00161024,-0.0109843 0.00278346,-0.0146457 0.00131496,-0.00366142 0.0030748,-0.00629921 0.00527165,-0.00790945 0.00205118,-0.00161417 0.00453937,-0.00234646 0.0074685,-0.00234646 0.00395669,0 0.00966929,0.00234646 0.0169921,0.0070315 0.00717717,0.00468898 0.0165512,0.00996063 0.028126,0.0156732 0.0114252,0.0057126 0.0250472,0.0109882 0.0408661,0.0156732 0.0159646,0.00468898 0.0342756,0.0070315 0.0552205,0.0070315 0.0137717,0 0.0260748,-0.00161024 0.0369134,-0.00483465 0.0108386,-0.00337008 0.0200669,-0.00805512 0.027685,-0.0140591 0.0074685,-0.00600787 0.0133268,-0.0133307 0.0172835,-0.0222638 0.00410236,-0.00893701 0.00600394,-0.018752 0.00600394,-0.0295906 0,-0.0125984 -0.00337008,-0.023437 -0.010252,-0.0323701 -0.00688583,-0.00908268 -0.0158189,-0.0171378 -0.0268071,-0.0240236 -0.0109843,-0.0070315 -0.0235827,-0.013622 -0.0374961,-0.0197756 -0.014063,-0.00614961 -0.028563,-0.0127441 -0.0433583,-0.0194803 -0.0149409,-0.00688583 -0.0294409,-0.0147953 -0.0433543,-0.023437 -0.014063,-0.0087874 -0.0265157,-0.019189 -0.0376457,-0.0313465 -0.0109882,-0.0121575 -0.0199213,-0.0265118 -0.0268071,-0.043063 -0.00688189,-0.0166969 -0.010252,-0.0364724 -0.010252,-0.0597638 0,-0.0265118 0.00498031,-0.0499488 0.0147913,-0.0701614 0.00981496,-0.0200669 0.0231457,-0.0369134 0.0399882,-0.0500945 0.0167008,-0.0133307 0.0364764,-0.0232913 0.0591811,-0.0298819 0.0227008,-0.00659055 0.0468701,-0.00981496 0.0723583,-0.00981496 0.0130354,0 0.0262165,0.00088189 0.0394016,0.00292913 0.013185,0.00205118 0.0254882,0.00468898 0.0369134,0.00820472 0.0114252,0.00337008 0.0215315,0.00732283 0.0304646,0.0115709 0.00893701,0.00424803 0.0147953,0.00790945 0.0175787,0.0106929 0.00292913,0.00292913 0.00483465,0.00527165 0.00585827,0.00732283 0.00102362,0.00205118 0.00175591,0.00468898 0.00249213,0.00790945 0.000732283,0.00337008 0.00131496,0.00747244 0.00161024,0.0124528 0.000145669,0.00498031 0.000291339,0.0112756 0.000291339,0.018748 0,0.00820079 -0.000145669,0.0152323 -0.000586614,0.0209449 -0.000437008,0.0057126 -0.00116929,0.0104016 -0.00219685,0.0142087 -0.000877953,0.00366142 -0.00234252,0.00644488 -0.00424803,0.00805906 -0.00190157,0.00175591 -0.0043937,0.00263386 -0.0074685,0.00263386 -0.00322441,0 -0.00820472,-0.00205118 -0.0150866,-0.00600394 -0.00688583,-0.00395669 -0.0152323,-0.00835039 -0.0253425,-0.0130354 -0.00996063,-0.00483465 -0.0215315,-0.00908268 -0.0347126,-0.0128898 -0.013185,-0.00395669 -0.0275394,-0.0058622 -0.0433583,-0.0058622 -0.0123031,0 -0.0229961,0.00146457 -0.0320787,0.00454331 -0.00922835,0.00292913 -0.0168465,0.00717717 -0.0229961,0.0124488 -0.00615354,0.00527165 -0.0106929,0.0115709 -0.0137677,0.0190433 -0.00293307,0.0074685 -0.00454331,0.015378 -0.00454331,0.0235827 0,0.0123031 0.00337008,0.0229961 0.0101063,0.0320787 0.00674016,0.00893307 0.0158189,0.0169882 0.0270984,0.0240197 0.0112795,0.0070315 0.0240236,0.013626 0.038378,0.0196299 0.0143543,0.00614961 0.0288543,0.0127441 0.0437953,0.019626 0.0147953,0.00688583 0.0294409,0.0146496 0.0437992,0.0232913 0.0142087,0.0087874 0.0269488,0.019189 0.0380827,0.0313465 0.0111339,0.0121575 0.0202126,0.0265118 0.0270984,0.0429173 0.00688583,0.0165512 0.010252,0.0358858 0.010252,0.0581496z"/>
  <path class="fil1" d="M0.116945 0.0121535l3.93701e-006 0c0.0636614,0 0.115748,0.0520866 0.115748,0.115748l0 1.03218c0,0.0636654 -0.0520866,0.115748 -0.115748,0.115748l-3.93701e-006 0c-0.0636614,0 -0.115748,-0.0520827 -0.115748,-0.115748l0 -1.03218c0,-0.0636614 0.0520866,-0.115748 0.115748,-0.115748zm0.0229252 0.0935394c0.0182913,0 0.0331181,0.0148268 0.0331181,0.0331142 0,0.0182913 -0.0148268,0.0331181 -0.0331181,0.0331181 -0.0182874,0 -0.0331142,-0.0148268 -0.0331142,-0.0331181 0,-0.0182874 0.0148268,-0.0331142 0.0331142,-0.0331142z"/>
  <path class="fil1" d="M0.0695354 0.0209567l0 0c0.070374,-0.0413858 0.165122,-0.0195157 0.210642,0.0483228l0.659673 0.983126c0.0455236,0.0678386 0.0251142,0.157429 -0.0452559,0.198819l0 0c-0.070374,0.0413819 -0.165098,0.0195433 -0.210638,-0.0483268l-0.659677 -0.983126c-0.0455394,-0.0678661 -0.0251142,-0.157429 0.0452559,-0.198815zm0.0703346 0.0847362c0.0182913,0 0.0331181,0.0148268 0.0331181,0.0331142 0,0.0182913 -0.0148268,0.0331181 -0.0331181,0.0331181 -0.0182874,0 -0.0331142,-0.0148268 -0.0331142,-0.0331181 0,-0.0182874 0.0148268,-0.0331142 0.0331142,-0.0331142z"/>
  <path class="fil2" d="M0.361646 0.0359724c0.00694882,-0.000515748 0.014189,-0.000775591 0.0217283,-0.000775591l0.390012 0c0.0574331,0 0.107028,0.00376772 0.149335,0.0110118 0.0763307,0.0131535 0.139709,0.0494213 0.188839,0.109228 0.0444646,0.0542362 0.0672441,0.122181 0.0672441,0.192094 0,0.124587 -0.0602402,0.215854 -0.180717,0.273512 0.158303,0.0518622 0.237311,0.153272 0.237311,0.303933 0,0.0695354 -0.0173701,0.132122 -0.0518307,0.187748 -0.02,0.0324567 -0.044063,0.0599331 -0.0721811,0.0824882l-0.137063 -0.211921c0.00929921,-0.022252 0.0139606,-0.0479606 0.0139606,-0.0771457 0,-0.062874 -0.0212953,-0.108362 -0.0638819,-0.136756 -0.0283937,-0.0186181 -0.0658898,-0.0311299 -0.112642,-0.0374567l-0.130531 -0.209051c0.0318307,-0.00129528 0.0524685,-0.00892913 0.0556614,0.00706693l0.00630315 0.0315906 0.0637992 -0.0173701 -0.010189 -0.0221929c-0.00670472,-0.0146142 -0.0562402,-0.0222992 -0.0823307,-0.0319488 -0.0501772,-0.0190276 -0.0442362,-0.0431535 -0.0174567,-0.0843858 0.00640945,-0.00986614 -0.0195197,-0.0172165 -0.0361535,-0.00495669 -0.000807087,0.000551181 0.0669685,-0.0667441 0.0880787,0.0647795 0.00198819,0.0123976 0.031815,0.00712205 0.0437953,-0.00425984 0.00906299,-0.0086063 0.0216417,-0.0478268 0.0284528,-0.0587677 0.021622,-0.0347244 0.036878,-0.0506063 0.0234055,-0.0943858 0.0355551,0.00375197 0.053122,0.0135512 0.0860866,0.0445748 -0.0288661,-0.0832441 -0.113445,-0.122303 -0.171295,-0.0757165l0.0378701 -0.0373465c-0.203984,-0.138311 -0.265067,-0.0720591 -0.324169,-0.0312795l-0.111441 -0.172311zm0.453256 0.196677c0.0426339,-0.0044252 0.0750709,0.0178465 0.0750709,0.0178465 -0.00619685,-0.0278386 -0.0361969,-0.0432677 -0.0578386,-0.0472126 -0.0222638,-0.00405512 -0.0420118,0.00305118 -0.0420197,0.00305906 -0.000846457,0.000677165 0.0216811,0.0243386 0.0247874,0.0263071z"/>
  <g id="_132547200">
   <path id="_251804392" class="fil0" d="M4.02203 0.854705l-0.0329567 0 -0.0184882 -0.0717126c-0.000700787,-0.00255118 -0.00184646,-0.00784252 -0.00350394,-0.0158425 -0.00166142,-0.008 -0.00261417,-0.0133543 -0.00287008,-0.0160945 -0.000350394,0.00337795 -0.00130709,0.00876378 -0.00277165,0.016189 -0.0015,0.00746063 -0.00264567,0.012752 -0.00347638,0.015937l-0.0183898 0.0715236 -0.0328622 0 -0.0348386 -0.136512 0.0284961 0 0.017437 0.0745197c0.00305906,0.0137362 0.00525591,0.0256575 0.00662598,0.0357598 0.000385827,-0.00356693 0.00124409,-0.00905118 0.00258268,-0.0164764 0.00133858,-0.00746063 0.00261417,-0.0132283 0.00379528,-0.0173386l0.0198898 -0.0764646 0.0273425 0 0.0198898 0.0764646c0.000862205,0.00344094 0.00197638,0.00866929 0.00328346,0.0156811 0.00130709,0.00704331 0.00229528,0.0130984 0.00296457,0.0181339 0.000637795,-0.00487402 0.00162598,-0.0109331 0.00299606,-0.0181654 0.00137008,-0.00726772 0.00261417,-0.0131339 0.00373228,-0.0175945l0.0173701 -0.0745197 0.0284921 0 -0.0347402 0.136512zm0.163799 0l-0.0288465 0 0 -0.0589331 -0.0540906 0 0 0.0589331 -0.0289409 0 0 -0.136512 0.0289409 0 0 0.0534803 0.0540906 0 0 -0.0534803 0.0288465 0 0 0.136512zm0.113083 0l-0.0786299 0 0 -0.136512 0.0786299 0 0 0.0237126 -0.049689 0 0 0.0299606 0.0462165 0 0 0.0237126 -0.0462165 0 0 0.0352205 0.049689 0 0 0.0239055zm0.0574055 -0.0759213l0.00933858 0c0.00914567,0 0.0159055,-0.0015315 0.0202717,-0.00455906 0.00436614,-0.00305906 0.00653543,-0.00783858 0.00653543,-0.0144055 0,-0.00647244 -0.00223228,-0.0110591 -0.00666535,-0.0138031 -0.00446063,-0.00274016 -0.0113465,-0.00411024 -0.020685,-0.00411024l-0.00879528 0 0 0.036878zm0 0.0235236l0 0.0523976 -0.0289409 0 0 -0.136512 0.0397756 0c0.0185512,0 0.0322874,0.00337795 0.0411811,0.0101339 0.0088937,0.00675591 0.0133583,0.0169882 0.0133583,0.0307598 0,0.0080315 -0.00220079,0.0151693 -0.00662992,0.0214173 -0.00443307,0.00627953 -0.0106772,0.0111575 -0.0187756,0.0147244 0.0205591,0.0306969 0.0339449,0.0505197 0.0401614,0.0594764l-0.0321299 0 -0.0325748 -0.0523976 -0.0154252 0zm0.172114 0.0523976l-0.0786299 0 0 -0.136512 0.0786299 0 0 0.0237126 -0.049689 0 0 0.0299606 0.0462165 0 0 0.0237126 -0.0462165 0 0 0.0352205 0.049689 0 0 0.0239055zm-0.610882 0.416701l-0.0284961 0 0 -0.136512 0.078248 0 0 0.0237126 -0.049752 0 0 0.035189 0.046311 0 0 0.0236496 -0.046311 0 0 0.0539606zm0.0764646 0l0 -0.136512 0.0289409 0 0 0.112606 0.0553937 0 0 0.0239055 -0.0843346 0zm0.150535 -0.0803228l0.0284961 -0.056189 0.0311732 0 -0.0452953 0.083378 0 0.0531339 -0.028748 0 0 -0.0522087 -0.0452913 -0.0843031 0.0313622 0 0.0283031 0.056189z"/>
   <path id="_87754168" class="fil3" d="M3.94703 0.948661c-0.0108661,0 -0.019315,0.00411024 -0.0253071,0.0122717 -0.00596063,0.00819291 -0.00895669,0.0196024 -0.00895669,0.0342323 0,0.030437 0.0114449,0.0456732 0.0342638,0.0456732 0.00959449,0 0.0211969,-0.00238976 0.0348386,-0.00720079l0 0.0242835c-0.011185,0.00465748 -0.0237126,0.00701575 -0.0375472,0.00701575 -0.0198583,0 -0.0350276,-0.00602362 -0.0455472,-0.0180748 -0.0105157,-0.0120472 -0.0157756,-0.0293543 -0.0157756,-0.0518898 0,-0.0141811 0.00258268,-0.0266142 0.00774409,-0.0372913 0.00516535,-0.0106772 0.0125906,-0.0188701 0.0222795,-0.0245748 0.00965748,-0.00567323 0.0210039,-0.00854331 0.0340079,-0.00854331 0.0132598,0 0.0265827,0.00322047 0.0399685,0.00962992l-0.00933858 0.0235197c-0.00509843,-0.00242126 -0.0102283,-0.00452362 -0.0153937,-0.00634252 -0.00516142,-0.00181496 -0.0102323,-0.00270866 -0.0152362,-0.00270866zm0.147449 0.114394l-0.00988189 -0.0325118 -0.0497874 0 -0.00988189 0.0325118 -0.0312008 0 0.0481929 -0.137087 0.035378 0 0.0483819 0.137087 -0.0312008 0zm-0.0167992 -0.0567677c-0.00914961,-0.0294488 -0.014311,-0.0461181 -0.0154606,-0.0499764 -0.00114567,-0.00385827 -0.00197244,-0.00688583 -0.00248425,-0.00914567 -0.00203937,0.00796457 -0.00793701,0.0276654 -0.017626,0.059122l0.0355709 0zm0.094122 -0.0191535l0.00933858 0c0.00914961,0 0.0159055,-0.0015315 0.0202717,-0.00455906 0.00436614,-0.00305906 0.00653543,-0.00783858 0.00653543,-0.0144055 0,-0.00647244 -0.00223228,-0.0110591 -0.00666142,-0.0138031 -0.00446457,-0.00274016 -0.0113465,-0.00411024 -0.020689,-0.00411024l-0.00879528 0 0 0.036878zm0 0.0235197l0 0.0524016 -0.0289409 0 0 -0.136512 0.0397795 0c0.0185472,0 0.0322874,0.00337795 0.0411772,0.0101339 0.0088937,0.00675591 0.0133583,0.0169882 0.0133583,0.0307598 0,0.0080315 -0.00220079,0.0151693 -0.00662992,0.0214173 -0.00443307,0.00627953 -0.0106772,0.0111575 -0.0187756,0.0147244 0.0205591,0.0306929 0.0339449,0.0505197 0.0401614,0.0594764l-0.0321299 0 -0.0325748 -0.0524016 -0.0154252 0zm0.172118 0.0524016l-0.0786339 0 0 -0.136512 0.0786339 0 0 0.0237126 -0.0496929 0 0 0.0299606 0.0462165 0 0 0.0237126 -0.0462165 0 0 0.0352205 0.0496929 0 0 0.0239055zm0.107091 0l-0.0786299 0 0 -0.136512 0.0786299 0 0 0.0237126 -0.049689 0 0 0.0299606 0.0462165 0 0 0.0237126 -0.0462165 0 0 0.0352205 0.049689 0 0 0.0239055zm0.0574055 -0.0759213l0.00933858 0c0.00914961,0 0.0159055,-0.0015315 0.0202717,-0.00455906 0.00436614,-0.00305906 0.00653543,-0.00783858 0.00653543,-0.0144055 0,-0.00647244 -0.00223228,-0.0110591 -0.00666142,-0.0138031 -0.00446457,-0.00274016 -0.0113465,-0.00411024 -0.020685,-0.00411024l-0.00879921 0 0 0.036878zm0 0.0235197l0 0.0524016 -0.0289409 0 0 -0.136512 0.0397795 0c0.0185472,0 0.0322874,0.00337795 0.0411772,0.0101339 0.0088937,0.00675591 0.0133583,0.0169882 0.0133583,0.0307598 0,0.0080315 -0.00220079,0.0151693 -0.00662992,0.0214173 -0.00442913,0.00627953 -0.0106772,0.0111575 -0.0187756,0.0147244 0.0205591,0.0306929 0.0339449,0.0505197 0.0401614,0.0594764l-0.032126 0 -0.0325787 -0.0524016 -0.0154252 0zm0.177886 0.0145039c0,0.0123031 -0.00442913,0.0220236 -0.0132913,0.0291339 -0.0088622,0.0070748 -0.0212283,0.0106457 -0.0370354,0.0106457 -0.0145669,0 -0.0274449,-0.00274409 -0.0386654,-0.00822441l0 -0.0269016c0.0092126,0.00411024 0.0170236,0.00701181 0.0233976,0.00866929 0.00637402,0.00168898 0.0122402,0.00255118 0.0175315,0.00255118 0.00633858,0 0.0112165,-0.0012126 0.0145945,-0.00366535 0.00341339,-0.00242126 0.00510236,-0.00602362 0.00510236,-0.0108386 0,-0.00264567 -0.00076378,-0.00503543 -0.00226378,-0.0071378 -0.00146457,-0.00207087 -0.00366535,-0.00407874 -0.00656693,-0.00602362 -0.00290157,-0.00191339 -0.00879528,-0.00500394 -0.017689,-0.00924409 -0.00835039,-0.00392126 -0.0145984,-0.0076811 -0.0187717,-0.0112835 -0.00417717,-0.00360236 -0.00749213,-0.00780709 -0.0100079,-0.012622 -0.00248819,-0.00477953 -0.00373228,-0.0103898 -0.00373228,-0.0167953 0,-0.0120827 0.00411417,-0.0215787 0.0122717,-0.0284961 0.00819291,-0.00688583 0.0195079,-0.0103622 0.0339449,-0.0103622 0.00711024,0 0.0138661,0.000862205 0.0203346,0.00251969 0.00644094,0.00168898 0.0131654,0.00405118 0.0202087,0.00711024l-0.00933858 0.0225c-0.00729921,-0.00299606 -0.0133228,-0.00506693 -0.0180709,-0.00624803 -0.00474803,-0.00117717 -0.00943701,-0.00178346 -0.0140551,-0.00178346 -0.00548425,0 -0.00969291,0.00127559 -0.0125906,0.00382283 -0.00293307,0.00255118 -0.00439764,0.00589764 -0.00439764,0.0100118 0,0.00254724 0.000570866,0.00477953 0.00178346,0.00666142 0.00117717,0.00191339 0.00305906,0.00372835 0.00564173,0.00551181 0.00257874,0.0017874 0.00870079,0.00497244 0.0183268,0.00956299 0.0127795,0.00611811 0.0215157,0.0122402 0.0262638,0.0183583 0.00471654,0.00612205 0.0070748,0.0136417 0.0070748,0.0225669z"/>
  </g>
  <polygon class="fil4" points="3.75762,0.706921 3.76233,0.706921 3.76233,1.27241 3.75762,1.27241 "/>
 </g>
</svg>
